  0
SECTION
  2
HEADER
  9
$ACADVER
  1
AC1009
  0
ENDSEC
  0
SECTION
  2
BLOCKS
  0
ENDSEC
  0
SECTION
  2
ENTITIES
  0
LINE
  8
CUT
 62
     5
 10
1.9724753611322341
 20
0.4071346127707478

  8
CUT
 62
     5
 10
2.6124753611322347
 20
0.4371346127707472
 40
0.0000000000002120
  0
LINE
  8
CUT
 62
     5
 10
2.6424753611322358
 20
0.4371346127707473
 11
2.6424753611322340
 21
2.6124753611322347
 20
1.0071346127707477
 11
1.9724753611322341
 21
1.0071346127707477
  0
ARC
  8
CUT
 62
     5
 10
1.9724753611322341
 200000000
 51
180.0000000000000000
  0
LINE
  8
CUT
 62
     5
 10
1.9424753611322347
 20
0.9771346127707479
 11
1.9424753611322347
 21
0.4371346127707478
  0
ARC
  8
0000
 51
270.0000000000000000
  0
CIRCLE
  8
CUT
 62
     5
 10
0.7124999999999999
 20
0.7124999999999999
 40
0.2577228596164672
  0
LINE
  8
CUT
 62
     5
 10
1.5688878087292752
 20
0.6554637349171067
 11
1.5688878087292759
 21
0.7854637349171074
  0
LINE
  8
CUT
 62
     5
 10
1.3488878087292762
 20
0.7854637349171074
 11
1.3488878087292764
 21
0.6554637349171064
  0
CIRCLE
  8
CUT
 62
     5
 10
4.4637612222222218
 20
1.0653138888888889
 40
0.0787500000000000
  0
CIRCLE
  8
CUT
 62
     5
 10
3.1978177228351270
 20
0.8976976764264863
 40
0.0787500000000000
  0
CIRCLE
  8
CUT
 62
     5
 10
3.5815706303148396
 20
0.7212595580450096
 40
0.1562012667054717
  0
CIRCLE
  8
CUT
 62
     5
 10
4.0844192677020477
 20
0.7433143228426942
 40
0.1367187546967097
  0
LINE
  8
CUT
 62
     5
 10
0.0000000000000001
 20
0.0000000000000000
 11
4.7925112222222230
 21
0.0000000000000000
  0
LINE
  8
CUT
 62
     5
 10
4.7925112222222230
 20
0.0000000000000000
 11
4.7925112222222221
 21
1.4249999999999996
  0
LINE
  8
CUT
 62
     5
 10
4.7925112222222221
 20
1.4249999999999996
 11
0.0000000000000000
 21
1.4250000000000003
  0
LINE
  8
CUT
 62
     5
 10
0.0000000000000000
 20
1.4250000000000003
 11
0.0000000000000001
 21
0.0000000000000000
  0
ARC
  8
CUT
 62
     5
 10
1.4588878087292760
 20
0.7854637349171074
 40
0.1099999999999999
 50
0.0000000000000000
 51
180.0000000000000000
  0
ARC
  8
CUT
 62
     5
 10
1.4588878087292758
 20
0.6554637349171064
 40
0.1099999999999994
 50
179.9999999999998295
 51
359.9999999999998863
  0
LINE
  8
CUT
 62
     5
 10
1.9724753611322328
 20
2.1274487734229650
 11
2.6124753611322333
 21
2.1274487734229646
  0
ARC
  8
CUT
 62
     5
 10
2.6124753611322333
 20
2.1574487734229644
 40
0.0300000000000000
 50
270.0000000000000000
 51
0.0000000000008481
  0
LINE
  8
CUT
 62
     5
 10
2.6424753611322345
 20
2.1574487734229648
 11
2.6424753611322327
 21
2.6974487734229653
  0
ARC
  8
CUT
 62
     5
 10
2.6124753611322333
 20
2.6974487734229653
 40
0.0300000000000000
 50
0.0000000000000000
 51
90.0000000000000000
  0
LINE
  8
CUT
 62
     5
 10
2.6124753611322333
 20
2.7274487734229651
 11
1.9724753611322328
 21
2.7274487734229651
  0
ARC
  8
CUT
 62
     5
 10
1.9724753611322328
 20
2.6974487734229653
 40
0.0300000000000000
 50
90.0000000000000000
 51
180.0000000000000000
  0
LINE
  8
CUT
 62
     5
 10
1.9424753611322334
 20
2.6974487734229653
 11
1.9424753611322334
 21
2.1574487734229653
  0
ARC
  8
CUT
 62
     5
 10
1.9724753611322328
 20
2.1574487734229653
 40
0.0300000000000000
 50
180.0000000000000000
 51
270.0000000000000000
  0
CIRCLE
  8
CUT
 62
     5
 10
0.7124999999999986
 20
2.4328141606522173
 40
0.2577228596164672
  0
LINE
  8
CUT
 62
     5
 10
1.5688878087292739
 20
2.3757778955693243
 11
1.5688878087292748
 21
2.5057778955693251
  0
LINE
  8
CUT
 62
     5
 10
1.3488878087292751
 20
2.5057778955693251
 11
1.3488878087292751
 21
2.3757778955693238
  0
CIRCLE
  8
CUT
 62
     5
 10
4.4637612222222209
 20
2.7856280495411063
 40
0.0787500000000000
  0
CIRCLE
  8
CUT
 62
     5
 10
3.1978177228351257
 20
2.6180118370787038
 40
0.0787500000000000
  0
CIRCLE
  8
CUT
 62
     5
 10
3.5815706303148378
 20
2.4415737186972271
 40
0.1562012667054717
  0
CIRCLE
  8
CUT
 62
     5
 10
4.0844192677020477
 20
2.4636284834949116
 40
0.1367187546967097
  0
LINE
  8
CUT
 62
     5
 10
-0.0000000000000009
 20
1.7203141606522174
 11
4.7925112222222221
 21
1.7203141606522174
  0
LINE
  8
CUT
 62
     5
 10
4.7925112222222221
 20
1.7203141606522174
 11
4.7925112222222221
 21
3.1453141606522173
  0
LINE
  8
CUT
 62
     5
 10
4.7925112222222221
 20
3.1453141606522173
 11
-0.0000000000000009
 21
3.1453141606522177
  0
LINE
  8
CUT
 62
     5
 10
-0.0000000000000009
 20
3.1453141606522177
 11
-0.0000000000000009
 21
1.7203141606522174
  0
ARC
  8
CUT
 62
     5
 10
1.4588878087292754
 20
2.5057778955693251
 40
0.1099999999999999
 50
0.0000000000000000
 51
180.0000000000000000
  0
ARC
  8
CUT
 62
     5
 10
1.4588878087292745
 20
2.3757778955693238
 40
0.1099999999999994
 50
179.9999999999997726
 51
359.9999999999997158
  0
ENDSEC
  0
EOF
