  0
SECTION
  2
HEADER
  9
$ACADVER
  1
AC1009
  0
ENDSEC
  0
SECTION
  2
BLOCKS
  0
ENDSEC
  0
SECTION
  2
ENTITIES
  0
CIRCLE
  8
A
 62
     5
 10
5.4590589380847767
 20
2.5379713654245402
 40
0.2500000000000000
  0
ARC
  8
A
 62
     5
 10
2.4746230156358120
 20
2.8395881875434279
 40
0.2453125000000000
 50
126.8698976458438352
 51
53.1301023541559374
  0
LINE
  8
A
 62
     5
 10
2.6218105156358122
 20
3.0849006875434277
 11
2.6218105156358122
 21
3.0358381875434279
  0
LINE
  8
A
 62
     5
 10
2.3274355156358126
 20
3.0849006875434277
 11
2.3274355156358126
 21
3.0358381875434279
  0
LINE
  8
A
 62
     5
 10
0.7624073367531781
 20
0.4385377015436300
 11
1.5124073367531783
 21
0.4385377015436300
  0
LINE
  8
A
 62
     5
 10
1.5124073367531783
 20
0.6885377015436300
 11
0.7624073367531781
 21
0.6885377015436300
  0
ARC
  8
A
 62
     5
 10
0.7624073367531781
 20
0.5635377015436300
 40
0.1250000000000000
 50
90.0000000000000000
 51
270.0000000000000000
  0
ARC
  8
A
 62
     5
 10
1.5124073367531783
 20
0.5635377015436300
 40
0.1250000000000000
 50
270.0000000000000000
 51
90.0000000000000000
  0
LINE
  8
A
 62
     5
 10
0.9345269390700968
 20
0.9455198039002299
 11
1.3745269390700963
 21
0.9455198039002313
  0
LINE
  8
A
 62
     5
 10
1.3745269390700963
 20
1.0055198039002309
 11
0.9345269390700968
 21
1.0055198039002313
  0
ARC
  8
A
 62
     5
 10
0.9345269390700968
 20
0.9755198039002306
 40
0.0300000000000007
 50
90.0000000000000000
 51
270.0000000000000000
  0
ARC
  8
A
 62
     5
 10
1.3745269390700963
 20
0.9755198039002311
 40
0.0299999999999998
 50
270.0000000000000000
 51
90.0000000000000000
  0
LINE
  8
A
 62
     5
 10
2.6772190710215673
 20
0.4876004856426559
 11
3.6456109442290119
 21
0.4876004856426559
  0
ARC
  8
A
 62
     5
 10
3.6456109442290119
 20
0.5876004856426559
 40
0.1000000000000000
 50
270.0000000000000000
 51
19.9632696043748119
  0
LINE
  8
A
 62
     5
 10
3.7396021127571353
 20
0.6217422524205758
 11
3.6122509952267774
 21
0.9723357184207557
  0
ARC
  8
A
 62
     5
 10
3.5182598266986540
 20
0.9381939516428358
 40
0.1000000000000000
 50
19.9632696043748119
 51
90.0000000000000000
  0
LINE
  8
A
 62
     5
 10
3.5182598266986540
 20
1.0381939516428358
 11
2.8045701885519252
 21
1.0381939516428358
  0
ARC
  8
A
 62
     5
 10
2.8045701885519252
 20
0.9381939516428358
 40
0.1000000000000000
 50
90.0000000000000000
 51
160.0367303956251988
  0
LINE
  8
A
 62
     5
 10
2.7105790200238018
 20
0.9723357184207557
 11
2.5832279024934439
 21
0.6217422524205759
  0
ARC
  8
A
 62
     5
 10
2.6772190710215673
 20
0.5876004856426559
 40
0.1000000000000000
 50
160.0367303956251419
 51
270.0000000000000000
  0
ARC
  8
CUT
 62
     5
 10
5.5290323778724080
 20
1.2617675938799797
 40
0.0750000000000161
 50
270.0000000000081286
 51
29.9999999999778808
  0
LINE
  8
CUT
 62
     5
 10
5.5290323778724186
 20
1.1867675938799636
 11
5.0039899990023606
 21
1.1867675938799636
  0
ARC
  8
CUT
 62
     5
 10
5.0039899990023713
 20
1.2617675938799797
 40
0.0750000000000161
 50
150.0000000000207478
 51
269.9999999999918714
  0
LINE
  8
CUT
 62
     5
 10
4.9390380937223277
 20
1.2992675938799634
 11
5.2015599149759773
 21
1.7539510348779705
  0
ARC
  8
CUT
 62
     5
 10
5.2665111884450866
 20
1.7164499405640274
 40
0.0750000000000161
 50
30.0009653262694123
 51
149.9990346722757124
  0
LINE
  8
CUT
 62
     5
 10
5.3314624619151481
 20
1.7539510348763212
 11
5.5939842831524480
 21
1.2992675938799634
  0
ARC
  8
CUT
 62
     5
 10
7.3896775802154249
 20
0.5052908540820753
 40
0.0750000000000161
 50
280.0000000000101750
 51
39.9999999999782361
  0
LINE
  8
CUT
 62
     5
 10
7.4027011935404605
 20
0.4314302726061463
 11
6.8856353881692502
 21
0.3402576203174501
  0
ARC
  8
CUT
 62
     5
 10
6.8726117748442430
 20
0.4141182017933844
 40
0.0750000000000161
 50
160.0000000000227374
 51
279.9999999999880629
  0
LINE
  8
CUT
 62
     5
 10
6.8021348282890379
 20
0.4397697125434519
 11
6.9515442268698919
 21
1.0810368322380981
  0
ARC
  8
CUT
 62
     5
 10
7.0245878487896114
 20
1.0640183335719104
 40
0.0750000000000161
 50
33.1154135506849627
 51
166.8845864481023966
  0
LINE
  8
CUT
 62
     5
 10
7.0874057319509181
 20
1.1049928812220609
 11
7.4471309134456156
 21
0.5534999248078911
  0
LINE
  8
CUT
 62
     5
 10
6.2865576819746849
 20
1.7182284653210225
 11
6.7865576819746849
 21
1.7182284653210225
  0
ARC
  8
CUT
 62
     5
 10
6.7865576819746849
 20
1.8182284653213863
 40
0.1000000000000000
 50
270.0000000000000000
 51
0.0000000000000000
  0
LINE
  8
CUT
 62
     5
 10
6.8865576819750487
 20
1.8182284653213863
 11
6.8865576819750487
 21
2.2882284653207314
  0
ARC
  8
CUT
 62
     5
 10
6.8565576819743939
 20
2.2882284653207314
 40
0.0300000000000000
 50
0.0000000000000000
 51
90.0000000000000000
  0
LINE
  8
CUT
 62
     5
 10
6.8565576819743939
 20
2.3182284653213863
 11
6.2165576819749759
 21
2.3182284653213863
  0
ARC
  8
CUT
 62
     5
 10
6.2165576819749759
 20
2.2882284653207314
 40
0.0300000000000000
 50
90.0000000000000000
 51
180.0000000000000000
  0
LINE
  8
CUT
 62
     5
 10
6.1865576819743211
 20
2.2882284653207314
 11
6.1865576819743211
 21
1.8182284653213863
  0
ARC
  8
CUT
 62
     5
 10
6.2865576819746849
 20
1.8182284653213863
 40
0.1000000000000000
 50
180.0000000000000000
 51
270.0000000000000000
  0
CIRCLE
  8
CUT
 62
     5
 10
4.8659035153084034
 20
2.1470381875425808
 40
0.0787500000000000
  0
LINE
  8
CUT
 62
     5
 10
3.7736410153081152
 20
1.8595756875439982
 11
3.9936410153092794
 21
1.8595756875439982
  0
LINE
  8
CUT
 62
     5
 10
3.9936410153092794
 20
1.8595756875439982
 11
3.9936410153092794
 21
2.2095756875425430
  0
LINE
  8
CUT
 62
     5
 10
3.9936410153092794
 20
2.2095756875425430
 11
3.7736410153081152
 21
2.2095756875425430
  0
LINE
  8
CUT
 62
     5
 10
3.7736410153081152
 20
2.2095756875425430
 11
3.7736410153081152
 21
1.8595756875439982
  0
CIRCLE
  8
CUT
 62
     5
 10
3.0791562930860010
 20
1.7942242986538766
 40
0.5441832033866222
  0
LINE
  8
CUT
 62
     5
 10
1.8091270153087891
 20
1.8595756875439982
 11
2.0291270153081342
 21
1.8595756875439982
  0
LINE
  8
CUT
 62
     5
 10
2.0291270153081342
 20
1.8595756875439982
 11
2.0291270153081342
 21
2.2095756875425430
  0
LINE
  8
CUT
 62
     5
 10
2.0291270153081342
 20
2.2095756875425430
 11
1.8091270153087891
 21
2.2095756875425430
  0
LINE
  8
CUT
 62
     5
 10
1.8091270153087891
 20
2.2095756875425430
 11
1.8091270153087891
 21
1.8595756875439982
  0
LINE
  8
CUT
 62
     5
 10
8.0945416632709613
 20
0.2000000000007409
 11
7.8945416632702301
 21
0.2000000000007276
  0
LINE
  8
CUT
 62
     5
 10
7.8945416632702301
 20
0.2000000000007276
 11
7.8945416632702301
 21
0.0000000000000000
  0
LINE
  8
CUT
 62
     5
 10
7.8945416632702301
 20
0.0000000000000000
 11
5.6354060488408333
 21
0.0000000000000000
  0
LINE
  8
CUT
 62
     5
 10
5.6354060488408333
 20
0.0000000000000000
 11
5.6354060488408333
 21
0.2227899811023235
  0
ARC
  8
CUT
 62
     5
 10
5.6054060488401785
 20
0.2227899811023235
 40
0.0300000000000000
 50
0.0000000000000000
 51
90.0000000000000000
  0
LINE
  8
CUT
 62
     5
 10
5.6054060488401785
 20
0.2527899811029783
 11
4.9654060488407605
 21
0.2527899811029783
  0
ARC
  8
CUT
 62
     5
 10
4.9654060488407605
 20
0.2227899811023235
 40
0.0300000000000000
 50
90.0000000000000000
 51
180.0000000000000000
  0
LINE
  8
CUT
 62
     5
 10
4.9354060488401057
 20
0.2227899811023235
 11
4.9354060488401057
 21
0.0000000000000000
  0
LINE
  8
CUT
 62
     5
 10
4.9354060488401057
 20
0.0000000000000000
 11
0.1448657504658541
 21
0.0000000000000000
  0
LINE
  8
CUT
 62
     5
 10
0.1448657504658541
 20
0.0000000000000000
 11
0.0000000000000000
 21
0.1504866513131069
  0
LINE
  8
CUT
 62
     5
 10
0.0000000000000000
 20
0.1504866513131069
 11
0.1068230444959255
 21
2.9559991936641161
  0
ARC
  8
CUT
 62
     5
 10
0.2407260139750207
 20
2.9509006875434132
 40
0.1340000000000000
 50
90.0000000000000000
 51
177.8194521454633730
  0
LINE
  8
CUT
 62
     5
 10
0.2407260139750207
 20
3.0849006875434277
 11
2.3274355156357673
 21
3.0849006875434268
  0
LINE
  8
CUT
 62
     5
 10
2.6218105156357989
 20
3.0849006875434268
 11
7.9605416632709449
 21
3.0849006875434277
  0
ARC
  8
CUT
 62
     5
 10
7.9605416632709449
 20
2.9509006875434132
 40
0.1340000000000000
 50
0.0000000000000000
 51
90.0000000000000000
  0
LINE
  8
CUT
 62
     5
 10
8.0945416632709595
 20
2.9509006875434132
 11
8.0945416632709613
 21
0.2000000000007409
  0
ARC
  8
CUT
 62
     5
 10
1.1399417701703984
 20
1.8531050558148150
 40
0.1680136484100009
 50
0.9555661934363535
 51
36.8885215710321290
  0
ARC
  8
CUT
 62
     5
 10
1.0323926156114558
 20
1.7720412332222049
 40
0.3026914904895630
 50
36.9411035321518781
 51
61.1167419575615725
  0
ARC
  8
CUT
 62
     5
 10
0.9150298597915126
 20
1.5697777604261320
 40
0.5365077762296626
 50
60.5758363679647545
 51
77.0406837634733819
  0
ARC
  8
CUT
 62
     5
 10
0.8679928269291335
 20
1.3844270898032700
 40
0.7276985077886839
 50
76.7042919975651216
 51
90.1280108914693869
  0
ARC
  8
CUT
 62
     5
 10
0.8647411648347978
 20
1.3844270898032696
 40
0.7276985077886844
 50
89.8719891085306273
 51
103.2957080024348642
  0
ARC
  8
CUT
 62
     5
 10
0.8177041319724192
 20
1.5697777604261309
 40
0.5365077762296641
 50
102.9593162365266465
 51
119.4241636320352455
  0
ARC
  8
CUT
 62
     5
 10
0.7003413761524744
 20
1.7720412332222060
 40
0.3026914904895616
 50
118.8832580424383423
 51
143.0588964678481716
  0
ARC
  8
CUT
 62
     5
 10
0.5927922215935331
 20
1.8531050558148148
 40
0.1680136484100012
 50
143.1114784289678710
 51
179.0444338065635748
  0
ARC
  8
CUT
 62
     5
 10
0.5927922215935328
 20
1.8587089841050546
 40
0.1680136484100009
 50
180.9555661934363684
 51
216.8885215710321006
  0
ARC
  8
CUT
 62
     5
 10
0.7003413761524755
 20
1.9397728066976647
 40
0.3026914904895631
 50
216.9411035321518568
 51
241.1167419575615725
  0
ARC
  8
CUT
 62
     5
 10
0.8177041319724196
 20
2.1420362794937402
 40
0.5365077762296656
 50
240.5758363679647402
 51
257.0406837634733392
  0
ARC
  8
CUT
 62
     5
 10
0.8647411648347973
 20
2.3273869501165962
 40
0.7276985077886806
 50
256.7042919975651216
 51
270.1280108914693869
  0
ARC
  8
CUT
 62
     5
 10
0.8679928269291336
 20
2.3273869501165985
 40
0.7276985077886831
 50
269.8719891085306131
 51
283.2957080024348784
  0
ARC
  8
CUT
 62
     5
 10
0.9150298597915123
 20
2.1420362794937384
 40
0.5365077762296634
 50
282.9593162365266608
 51
299.4241636320352313
  0
ARC
  8
CUT
 62
     5
 10
1.0323926156114558
 20
1.9397728066976647
 40
0.3026914904895630
 50
298.8832580424383991
 51
323.0588964678481148
  0
ARC
  8
CUT
 62
     5
 10
1.1399417701703980
 20
1.8587089841050548
 40
0.1680136484100013
 50
323.1114784289678710
 51
359.0444338065635748
  0
ENDSEC
  0
EOF
