  0
SECTION
  2
HEADER
  9
$ACADVER
  1
AC1009
  0
ENDSEC
  0
SECTION
  2
BLOCKS
  0
ENDSEC
  0
SECTION
  2
ENTITIES
  0
LINE
  8
CUT
 62
     5
 10
5.7416195206726242
 20
0.4913277777777774
 11
6.2416195206726242
 21
0.4913277777777774
  0
ARC
  8
CUT
 62
     5
 10
6.2416195206726242
 20
0.5913277777777775
 40
0.1000000000000000
 50
270.0000000000000000
 51
0.0000000000000000
  0
LINE
  8
CUT
 62
     5
 10
6.3416195206726256
 20
0.5913277777777775
 11
6.3416195206726238
 21
1.0613277777777781
  0
ARC
  8
CUT
 62
     5
 10
6.3116195206726244
 20
1.0613277777777781
 40
0.0300000000000000
 50
0.0000000000000000
 51
90.0000000000000000
  0
LINE
  8
CUT
 62
     5
 10
6.3116195206726244
 20
1.0913277777777779
 11
5.6716195206726248
 21
1.0913277777777779
  0
ARC
  8
CUT
 62
     5
 10
5.6716195206726248
 20
1.0613277777777781
 40
0.0300000000000000
 50
90.0000000000000000
 51
180.0000000000000000
  0
LINE
  8
CUT
 62
     5
 10
5.6416195206726245
 20
1.0613277777777781
 11
5.6416195206726245
 21
0.5913277777777775
  0
ARC
  8
CUT
 62
     5
 10
5.7416195206726242
 20
0.5913277777777775
 40
0.1000000000000000
 50
180.0000000000000000
 51
270.0000000000000000
  0
CIRCLE
  8
CUT
 62
     5
 10
4.3209653540059580
 20
0.9201374999999996
 40
0.0787500000000000
  0
LINE
  8
CUT
 62
     5
 10
3.2287028540059577
 20
0.6326749999999994
 11
3.4487028540059574
 21
0.6326749999999994
  0
LINE
  8
CUT
 62
     5
 10
3.4487028540059574
 20
0.6326749999999994
 11
3.4487028540059574
 21
0.9826750000000000
  0
LINE
  8
CUT
 62
     5
 10
3.4487028540059574
 20
0.9826750000000000
 11
3.2287028540059577
 21
0.9826750000000000
  0
LINE
  8
CUT
 62
     5
 10
3.2287028540059577
 20
0.9826750000000000
 11
3.2287028540059577
 21
0.6326749999999994
  0
CIRCLE
  8
CUT
 62
     5
 10
2.5342181317837360
 20
0.5673236111111106
 40
0.4625000000000000
  0
LINE
  8
CUT
 62
     5
 10
1.2641888540059583
 20
0.6326749999999994
 11
1.4841888540059580
 21
0.6326749999999994
  0
LINE
  8
CUT
 62
     5
 10
1.4841888540059580
 20
0.6326749999999994
 11
1.4841888540059580
 21
0.9826750000000000
  0
LINE
  8
CUT
 62
     5
 10
1.4841888540059580
 20
0.9826750000000000
 11
1.2641888540059583
 21
0.9826750000000000
  0
LINE
  8
CUT
 62
     5
 10
1.2641888540059583
 20
0.9826750000000000
 11
1.2641888540059583
 21
0.6326749999999994
  0
CIRCLE
  8
CUT
 62
     5
 10
0.5697041317837366
 20
0.5673236111111106
 40
0.4625000000000000
  0
LINE
  8
CUT
 62
     5
 10
7.5496035019683871
 20
0.2000000000000002
 11
7.3496035019683861
 21
0.2000000000000002
  0
LINE
  8
CUT
 62
     5
 10
7.3496035019683861
 20
0.2000000000000002
 11
7.3496035019683861
 21
0.0000000000000008
  0
LINE
  8
CUT
 62
     5
 10
7.3496035019683861
 20
0.0000000000000008
 11
5.0904678875376455
 21
0.0000000000000000
  0
LINE
  8
CUT
 62
     5
 10
5.0904678875376455
 20
0.0000000000000000
 11
5.0904678875376463
 21
0.2227899811022072
  0
ARC
  8
CUT
 62
     5
 10
5.0604678875376461
 20
0.2227899811022072
 40
0.0300000000000000
 50
0.0000000000000000
 51
90.0000000000000000
  0
LINE
  8
CUT
 62
     5
 10
5.0604678875376461
 20
0.2527899811022070
 11
4.4204678875376455
 21
0.2527899811022070
  0
ARC
  8
CUT
 62
     5
 10
4.4204678875376455
 20
0.2227899811022072
 40
0.0300000000000000
 50
90.0000000000000000
 51
180.0000000000000000
  0
LINE
  8
CUT
 62
     5
 10
4.3904678875376453
 20
0.2227899811022072
 11
4.3904678875376453
 21
0.0000000000000000
  0
LINE
  8
CUT
 62
     5
 10
4.3904678875376453
 20
0.0000000000000000
 11
-0.4000724108364277
 21
0.0000000000000000
  0
LINE
  8
CUT
 62
     5
 10
-0.4000724108364277
 20
0.0000000000000000
 11
-0.5000000000000000
 21
0.1038048553134430
  0
LINE
  8
CUT
 62
     5
 10
-0.5000000000000000
 20
0.1038048553134430
 11
-0.4381151168066892
 21
1.7290985061200137
  0
ARC
  8
CUT
 62
     5
 10
-0.3042121473275018
 20
1.7239999999999998
 40
0.1340000000000000
 50
90.0000000000000000
 51
177.8194521457593282
  0
LINE
  8
CUT
 62
     5
 10
-0.3042121473275018
 20
1.8579999999999997
 11
7.4156035019683868
 21
1.8579999999999992
  0
ARC
  8
CUT
 62
     5
 10
7.4156035019683850
 20
1.7239999999999993
 40
0.1340000000000000
 50
0.0000000000000949
 51
89.9999999999992468
  0
LINE
  8
CUT
 62
     5
 10
7.5496035019683854
 20
1.7239999999999995
 11
7.5496035019683871
 21
0.2000000000000002
  0
LINE
  8
CUT
 62
     5
 10
14.3729767111295033
 20
0.4913277777777774
 11
14.8729767111295033
 21
0.4913277777777774
  0
ARC
  8
CUT
 62
     5
 10
14.8729767111295033
 20
0.5913277777777775
 40
0.1000000000000000
 50
270.0000000000000000
 51
0.0000000000000000
  0
LINE
  8
CUT
 62
     5
 10
14.9729767111295047
 20
0.5913277777777775
 11
14.9729767111295047
 21
1.0613277777777781
  0
ARC
  8
CUT
 62
     5
 10
14.9429767111295035
 20
1.0613277777777781
 40
0.0300000000000000
 50
0.0000000000000000
 51
90.0000000000000000
  0
LINE
  8
CUT
 62
     5
 10
14.9429767111295035
 20
1.0913277777777779
 11
14.3029767111295047
 21
1.0913277777777779
  0
ARC
  8
CUT
 62
     5
 10
14.3029767111295047
 20
1.0613277777777781
 40
0.0300000000000000
 50
90.0000000000000000
 51
180.0000000000000000
  0
LINE
  8
CUT
 62
     5
 10
14.2729767111295054
 20
1.0613277777777781
 11
14.2729767111295054
 21
0.5913277777777775
  0
ARC
  8
CUT
 62
     5
 10
14.3729767111295033
 20
0.5913277777777775
 40
0.1000000000000000
 50
180.0000000000000000
 51
270.0000000000000000
  0
CIRCLE
  8
CUT
 62
     5
 10
12.9523225444628380
 20
0.9201374999999996
 40
0.0787500000000000
  0
LINE
  8
CUT
 62
     5
 10
11.8600600444628377
 20
0.6326749999999994
 11
12.0800600444628365
 21
0.6326749999999994
  0
LINE
  8
CUT
 62
     5
 10
12.0800600444628365
 20
0.6326749999999994
 11
12.0800600444628365
 21
0.9826750000000000
  0
LINE
  8
CUT
 62
     5
 10
12.0800600444628365
 20
0.9826750000000000
 11
11.8600600444628377
 21
0.9826750000000000
  0
LINE
  8
CUT
 62
     5
 10
11.8600600444628377
 20
0.9826750000000000
 11
11.8600600444628377
 21
0.6326749999999994
  0
CIRCLE
  8
CUT
 62
     5
 10
11.1655753222406169
 20
0.5673236111111106
 40
0.4625000000000000
  0
LINE
  8
CUT
 62
     5
 10
9.8955460444628383
 20
0.6326749999999994
 11
10.1155460444628389
 21
0.6326749999999994
  0
LINE
  8
CUT
 62
     5
 10
10.1155460444628389
 20
0.6326749999999994
 11
10.1155460444628389
 21
0.9826750000000000
  0
LINE
  8
CUT
 62
     5
 10
10.1155460444628389
 20
0.9826750000000000
 11
9.8955460444628383
 21
0.9826750000000000
  0
LINE
  8
CUT
 62
     5
 10
9.8955460444628383
 20
0.9826750000000000
 11
9.8955460444628383
 21
0.6326749999999994
  0
CIRCLE
  8
CUT
 62
     5
 10
9.2010613222406157
 20
0.5673236111111106
 40
0.4625000000000000
  0
LINE
  8
CUT
 62
     5
 10
16.1809606924252662
 20
0.2000000000000002
 11
15.9809606924252670
 21
0.2000000000000002
  0
LINE
  8
CUT
 62
     5
 10
15.9809606924252670
 20
0.2000000000000002
 11
15.9809606924252670
 21
0.0000000000000008
  0
LINE
  8
CUT
 62
     5
 10
15.9809606924252670
 20
0.0000000000000008
 11
13.7218250779945254
 21
0.0000000000000000
  0
LINE
  8
CUT
 62
     5
 10
13.7218250779945254
 20
0.0000000000000000
 11
13.7218250779945272
 21
0.2227899811022072
  0
ARC
  8
CUT
 62
     5
 10
13.6918250779945261
 20
0.2227899811022072
 40
0.0300000000000000
 50
0.0000000000000000
 51
90.0000000000000000
  0
LINE
  8
CUT
 62
     5
 10
13.6918250779945261
 20
0.2527899811022070
 11
13.0518250779945255
 21
0.2527899811022070
  0
ARC
  8
CUT
 62
     5
 10
13.0518250779945255
 20
0.2227899811022072
 40
0.0300000000000000
 50
90.0000000000000000
 51
180.0000000000000000
  0
LINE
  8
CUT
 62
     5
 10
13.0218250779945244
 20
0.2227899811022072
 11
13.0218250779945244
 21
0.0000000000000000
  0
LINE
  8
CUT
 62
     5
 10
13.0218250779945244
 20
0.0000000000000000
 11
8.2312847796204522
 21
0.0000000000000000
  0
LINE
  8
CUT
 62
     5
 10
8.2312847796204522
 20
0.0000000000000000
 11
8.1313571904568800
 21
0.1038048553134430
  0
LINE
  8
CUT
 62
     5
 10
8.1313571904568800
 20
0.1038048553134430
 11
8.1932420736501914
 21
1.7290985061200137
  0
ARC
  8
CUT
 62
     5
 10
8.3271450431293790
 20
1.7239999999999998
 40
0.1340000000000000
 50
90.0000000000000000
 51
177.8194521457593282
  0
LINE
  8
CUT
 62
     5
 10
8.3271450431293790
 20
1.8579999999999997
 11
16.0469606924252659
 21
1.8579999999999992
  0
ARC
  8
CUT
 62
     5
 10
16.0469606924252659
 20
1.7239999999999993
 40
0.1340000000000000
 50
0.0000000000000949
 51
90.0000000000000000
  0
LINE
  8
CUT
 62
     5
 10
16.1809606924252662
 20
1.7239999999999995
 11
16.1809606924252662
 21
0.2000000000000002
  0
LINE
  8
CUT
 62
     5
 10
14.3729767111295033
 20
2.7341213784476759
 11
14.8729767111295033
 21
2.7341213784476759
  0
ARC
  8
CUT
 62
     5
 10
14.8729767111295033
 20
2.8341213784476760
 40
0.1000000000000000
 50
270.0000000000000000
 51
0.0000000000000000
  0
LINE
  8
CUT
 62
     5
 10
14.9729767111295047
 20
2.8341213784476760
 11
14.9729767111295047
 21
3.3041213784476766
  0
ARC
  8
CUT
 62
     5
 10
14.9429767111295035
 20
3.3041213784476766
 40
0.0300000000000000
 50
0.0000000000000000
 51
90.0000000000000000
  0
LINE
  8
CUT
 62
     5
 10
14.9429767111295035
 20
3.3341213784476764
 11
14.3029767111295047
 21
3.3341213784476764
  0
ARC
  8
CUT
 62
     5
 10
14.3029767111295047
 20
3.3041213784476766
 40
0.0300000000000000
 50
90.0000000000000000
 51
180.0000000000000000
  0
LINE
  8
CUT
 62
     5
 10
14.2729767111295054
 20
3.3041213784476766
 11
14.2729767111295054
 21
2.8341213784476760
  0
ARC
  8
CUT
 62
     5
 10
14.3729767111295033
 20
2.8341213784476760
 40
0.1000000000000000
 50
180.0000000000000000
 51
270.0000000000000000
  0
CIRCLE
  8
CUT
 62
     5
 10
12.9523225444628380
 20
3.1629311006698981
 40
0.0787500000000000
  0
LINE
  8
CUT
 62
     5
 10
11.8600600444628377
 20
2.8754686006698980
 11
12.0800600444628365
 21
2.8754686006698980
  0
LINE
  8
CUT
 62
     5
 10
12.0800600444628365
 20
2.8754686006698980
 11
12.0800600444628365
 21
3.2254686006698985
  0
LINE
  8
CUT
 62
     5
 10
12.0800600444628365
 20
3.2254686006698985
 11
11.8600600444628377
 21
3.2254686006698985
  0
LINE
  8
CUT
 62
     5
 10
11.8600600444628377
 20
3.2254686006698985
 11
11.8600600444628377
 21
2.8754686006698980
  0
CIRCLE
  8
CUT
 62
     5
 10
11.1655753222406169
 20
2.8101172117810091
 40
0.4625000000000000
  0
LINE
  8
CUT
 62
     5
 10
9.8955460444628383
 20
2.8754686006698980
 11
10.1155460444628389
 21
2.8754686006698980
  0
LINE
  8
CUT
 62
     5
 10
10.1155460444628389
 20
2.8754686006698980
 11
10.1155460444628389
 21
3.2254686006698985
  0
LINE
  8
CUT
 62
     5
 10
10.1155460444628389
 20
3.2254686006698985
 11
9.8955460444628383
 21
3.2254686006698985
  0
LINE
  8
CUT
 62
     5
 10
9.8955460444628383
 20
3.2254686006698985
 11
9.8955460444628383
 21
2.8754686006698980
  0
CIRCLE
  8
CUT
 62
     5
 10
9.2010613222406157
 20
2.8101172117810091
 40
0.4625000000000000
  0
LINE
  8
CUT
 62
     5
 10
16.1809606924252662
 20
2.4427936006698987
 11
15.9809606924252670
 21
2.4427936006698987
  0
LINE
  8
CUT
 62
     5
 10
15.9809606924252670
 20
2.4427936006698987
 11
15.9809606924252670
 21
2.2427936006698994
  0
LINE
  8
CUT
 62
     5
 10
15.9809606924252670
 20
2.2427936006698994
 11
13.7218250779945254
 21
2.2427936006698985
  0
LINE
  8
CUT
 62
     5
 10
13.7218250779945254
 20
2.2427936006698985
 11
13.7218250779945272
 21
2.4655835817721057
  0
ARC
  8
CUT
 62
     5
 10
13.6918250779945261
 20
2.4655835817721057
 40
0.0300000000000000
 50
0.0000000000000000
 51
90.0000000000000000
  0
LINE
  8
CUT
 62
     5
 10
13.6918250779945261
 20
2.4955835817721055
 11
13.0518250779945255
 21
2.4955835817721055
  0
ARC
  8
CUT
 62
     5
 10
13.0518250779945255
 20
2.4655835817721057
 40
0.0300000000000000
 50
90.0000000000000000
 51
180.0000000000000000
  0
LINE
  8
CUT
 62
     5
 10
13.0218250779945244
 20
2.4655835817721057
 11
13.0218250779945244
 21
2.2427936006698985
  0
LINE
  8
CUT
 62
     5
 10
13.0218250779945244
 20
2.2427936006698985
 11
8.2312847796204522
 21
2.2427936006698985
  0
LINE
  8
CUT
 62
     5
 10
8.2312847796204522
 20
2.2427936006698985
 11
8.1313571904568800
 21
2.3465984559833415
  0
LINE
  8
CUT
 62
     5
 10
8.1313571904568800
 20
2.3465984559833415
 11
8.1932420736501914
 21
3.9718921067899124
  0
ARC
  8
CUT
 62
     5
 10
8.3271450431293790
 20
3.9667936006698983
 40
0.1340000000000000
 50
90.0000000000000000
 51
177.8194521457592145
  0
LINE
  8
CUT
 62
     5
 10
8.3271450431293790
 20
4.1007936006698982
 11
16.0469606924252659
 21
4.1007936006698973
  0
ARC
  8
CUT
 62
     5
 10
16.0469606924252659
 20
3.9667936006698978
 40
0.1340000000000000
 50
0.0000000000000000
 51
90.0000000000000000
  0
LINE
  8
CUT
 62
     5
 10
16.1809606924252662
 20
3.9667936006698978
 11
16.1809606924252662
 21
2.4427936006698987
  0
LINE
  8
CUT
 62
     5
 10
14.3729767111295033
 20
4.9769149791175744
 11
14.8729767111295033
 21
4.9769149791175744
  0
ARC
  8
CUT
 62
     5
 10
14.8729767111295033
 20
5.0769149791175749
 40
0.1000000000000000
 50
270.0000000000000000
 51
0.0000000000000000
  0
LINE
  8
CUT
 62
     5
 10
14.9729767111295047
 20
5.0769149791175749
 11
14.9729767111295047
 21
5.5469149791175756
  0
ARC
  8
CUT
 62
     5
 10
14.9429767111295035
 20
5.5469149791175756
 40
0.0300000000000000
 50
0.0000000000000000
 51
90.0000000000000000
  0
LINE
  8
CUT
 62
     5
 10
14.9429767111295035
 20
5.5769149791175749
 11
14.3029767111295047
 21
5.5769149791175749
  0
ARC
  8
CUT
 62
     5
 10
14.3029767111295047
 20
5.5469149791175756
 40
0.0300000000000000
 50
90.0000000000000000
 51
180.0000000000000000
  0
LINE
  8
CUT
 62
     5
 10
14.2729767111295054
 20
5.5469149791175756
 11
14.2729767111295054
 21
5.0769149791175749
  0
ARC
  8
CUT
 62
     5
 10
14.3729767111295033
 20
5.0769149791175749
 40
0.1000000000000000
 50
180.0000000000000000
 51
270.0000000000000000
  0
CIRCLE
  8
CUT
 62
     5
 10
12.9523225444628380
 20
5.4057247013397962
 40
0.0787500000000000
  0
LINE
  8
CUT
 62
     5
 10
11.8600600444628377
 20
5.1182622013397960
 11
12.0800600444628365
 21
5.1182622013397960
  0
LINE
  8
CUT
 62
     5
 10
12.0800600444628365
 20
5.1182622013397960
 11
12.0800600444628365
 21
5.4682622013397975
  0
LINE
  8
CUT
 62
     5
 10
12.0800600444628365
 20
5.4682622013397975
 11
11.8600600444628377
 21
5.4682622013397975
  0
LINE
  8
CUT
 62
     5
 10
11.8600600444628377
 20
5.4682622013397975
 11
11.8600600444628377
 21
5.1182622013397960
  0
CIRCLE
  8
CUT
 62
     5
 10
11.1655753222406169
 20
5.0529108124509072
 40
0.4625000000000000
  0
LINE
  8
CUT
 62
     5
 10
9.8955460444628383
 20
5.1182622013397960
 11
10.1155460444628389
 21
5.1182622013397960
  0
LINE
  8
CUT
 62
     5
 10
10.1155460444628389
 20
5.1182622013397960
 11
10.1155460444628389
 21
5.4682622013397975
  0
LINE
  8
CUT
 62
     5
 10
10.1155460444628389
 20
5.4682622013397975
 11
9.8955460444628383
 21
5.4682622013397975
  0
LINE
  8
CUT
 62
     5
 10
9.8955460444628383
 20
5.4682622013397975
 11
9.8955460444628383
 21
5.1182622013397960
  0
CIRCLE
  8
CUT
 62
     5
 10
9.2010613222406157
 20
5.0529108124509072
 40
0.4625000000000000
  0
LINE
  8
CUT
 62
     5
 10
16.1809606924252662
 20
4.6855872013397972
 11
15.9809606924252670
 21
4.6855872013397972
  0
LINE
  8
CUT
 62
     5
 10
15.9809606924252670
 20
4.6855872013397972
 11
15.9809606924252670
 21
4.4855872013397979
  0
LINE
  8
CUT
 62
     5
 10
15.9809606924252670
 20
4.4855872013397979
 11
13.7218250779945254
 21
4.4855872013397970
  0
LINE
  8
CUT
 62
     5
 10
13.7218250779945254
 20
4.4855872013397970
 11
13.7218250779945272
 21
4.7083771824420042
  0
ARC
  8
CUT
 62
     5
 10
13.6918250779945261
 20
4.7083771824420042
 40
0.0300000000000000
 50
0.0000000000000000
 51
90.0000000000000000
  0
LINE
  8
CUT
 62
     5
 10
13.6918250779945261
 20
4.7383771824420045
 11
13.0518250779945255
 21
4.7383771824420045
  0
ARC
  8
CUT
 62
     5
 10
13.0518250779945255
 20
4.7083771824420042
 40
0.0300000000000000
 50
90.0000000000000000
 51
180.0000000000000000
  0
LINE
  8
CUT
 62
     5
 10
13.0218250779945244
 20
4.7083771824420042
 11
13.0218250779945244
 21
4.4855872013397970
  0
LINE
  8
CUT
 62
     5
 10
13.0218250779945244
 20
4.4855872013397970
 11
8.2312847796204522
 21
4.4855872013397970
  0
LINE
  8
CUT
 62
     5
 10
8.2312847796204522
 20
4.4855872013397970
 11
8.1313571904568800
 21
4.5893920566532405
  0
LINE
  8
CUT
 62
     5
 10
8.1313571904568800
 20
4.5893920566532405
 11
8.1932420736501914
 21
6.2146857074598110
  0
ARC
  8
CUT
 62
     5
 10
8.3271450431293790
 20
6.2095872013397972
 40
0.1340000000000000
 50
90.0000000000000000
 51
177.8194521457594419
  0
LINE
  8
CUT
 62
     5
 10
8.3271450431293790
 20
6.3435872013397967
 11
16.0469606924252659
 21
6.3435872013397958
  0
ARC
  8
CUT
 62
     5
 10
16.0469606924252659
 20
6.2095872013397964
 40
0.1340000000000000
 50
0.0000000000000000
 51
90.0000000000000000
  0
LINE
  8
CUT
 62
     5
 10
16.1809606924252662
 20
6.2095872013397964
 11
16.1809606924252662
 21
4.6855872013397972
  0
LINE
  8
CUT
 62
     5
 10
5.7416195206726242
 20
4.9769149791175744
 11
6.2416195206726242
 21
4.9769149791175744
  0
ARC
  8
CUT
 62
     5
 10
6.2416195206726242
 20
5.0769149791175749
 40
0.1000000000000000
 50
270.0000000000000000
 51
0.0000000000000000
  0
LINE
  8
CUT
 62
     5
 10
6.3416195206726256
 20
5.0769149791175749
 11
6.3416195206726238
 21
5.5469149791175756
  0
ARC
  8
CUT
 62
     5
 10
6.3116195206726244
 20
5.5469149791175756
 40
0.0300000000000000
 50
0.0000000000000000
 51
90.0000000000000000
  0
LINE
  8
CUT
 62
     5
 10
6.3116195206726244
 20
5.5769149791175749
 11
5.6716195206726248
 21
5.5769149791175749
  0
ARC
  8
CUT
 62
     5
 10
5.6716195206726248
 20
5.5469149791175756
 40
0.0300000000000000
 50
90.0000000000000000
 51
180.0000000000000000
  0
LINE
  8
CUT
 62
     5
 10
5.6416195206726245
 20
5.5469149791175756
 11
5.6416195206726245
 21
5.0769149791175749
  0
ARC
  8
CUT
 62
     5
 10
5.7416195206726242
 20
5.0769149791175749
 40
0.1000000000000000
 50
180.0000000000000000
 51
270.0000000000000000
  0
CIRCLE
  8
CUT
 62
     5
 10
4.3209653540059580
 20
5.4057247013397962
 40
0.0787500000000000
  0
LINE
  8
CUT
 62
     5
 10
3.2287028540059577
 20
5.1182622013397960
 11
3.4487028540059574
 21
5.1182622013397960
  0
LINE
  8
CUT
 62
     5
 10
3.4487028540059574
 20
5.1182622013397960
 11
3.4487028540059574
 21
5.4682622013397975
  0
LINE
  8
CUT
 62
     5
 10
3.4487028540059574
 20
5.4682622013397975
 11
3.2287028540059577
 21
5.4682622013397975
  0
LINE
  8
CUT
 62
     5
 10
3.2287028540059577
 20
5.4682622013397975
 11
3.2287028540059577
 21
5.1182622013397960
  0
CIRCLE
  8
CUT
 62
     5
 10
2.5342181317837360
 20
5.0529108124509072
 40
0.4625000000000000
  0
LINE
  8
CUT
 62
     5
 10
1.2641888540059583
 20
5.1182622013397960
 11
1.4841888540059580
 21
5.1182622013397960
  0
LINE
  8
CUT
 62
     5
 10
1.4841888540059580
 20
5.1182622013397960
 11
1.4841888540059580
 21
5.4682622013397975
  0
LINE
  8
CUT
 62
     5
 10
1.4841888540059580
 20
5.4682622013397975
 11
1.2641888540059583
 21
5.4682622013397975
  0
LINE
  8
CUT
 62
     5
 10
1.2641888540059583
 20
5.4682622013397975
 11
1.2641888540059583
 21
5.1182622013397960
  0
CIRCLE
  8
CUT
 62
     5
 10
0.5697041317837366
 20
5.0529108124509072
 40
0.4625000000000000
  0
LINE
  8
CUT
 62
     5
 10
7.5496035019683871
 20
4.6855872013397972
 11
7.3496035019683861
 21
4.6855872013397972
  0
LINE
  8
CUT
 62
     5
 10
7.3496035019683861
 20
4.6855872013397972
 11
7.3496035019683861
 21
4.4855872013397979
  0
LINE
  8
CUT
 62
     5
 10
7.3496035019683861
 20
4.4855872013397979
 11
5.0904678875376455
 21
4.4855872013397970
  0
LINE
  8
CUT
 62
     5
 10
5.0904678875376455
 20
4.4855872013397970
 11
5.0904678875376463
 21
4.7083771824420042
  0
ARC
  8
CUT
 62
     5
 10
5.0604678875376461
 20
4.7083771824420042
 40
0.0300000000000000
 50
0.0000000000000000
 51
90.0000000000000000
  0
LINE
  8
CUT
 62
     5
 10
5.0604678875376461
 20
4.7383771824420045
 11
4.4204678875376455
 21
4.7383771824420045
  0
ARC
  8
CUT
 62
     5
 10
4.4204678875376455
 20
4.7083771824420042
 40
0.0300000000000000
 50
90.0000000000000000
 51
180.0000000000000000
  0
LINE
  8
CUT
 62
     5
 10
4.3904678875376453
 20
4.7083771824420042
 11
4.3904678875376453
 21
4.4855872013397970
  0
LINE
  8
CUT
 62
     5
 10
4.3904678875376453
 20
4.4855872013397970
 11
-0.4000724108364277
 21
4.4855872013397970
  0
LINE
  8
CUT
 62
     5
 10
-0.4000724108364277
 20
4.4855872013397970
 11
-0.5000000000000000
 21
4.5893920566532405
  0
LINE
  8
CUT
 62
     5
 10
-0.5000000000000000
 20
4.5893920566532405
 11
-0.4381151168066892
 21
6.2146857074598110
  0
ARC
  8
CUT
 62
     5
 10
-0.3042121473275018
 20
6.2095872013397972
 40
0.1340000000000000
 50
90.0000000000000000
 51
177.8194521457594419
  0
LINE
  8
CUT
 62
     5
 10
-0.3042121473275018
 20
6.3435872013397967
 11
7.4156035019683868
 21
6.3435872013397958
  0
ARC
  8
CUT
 62
     5
 10
7.4156035019683850
 20
6.2095872013397964
 40
0.1340000000000000
 50
0.0000000000000000
 51
89.9999999999992468
  0
LINE
  8
CUT
 62
     5
 10
7.5496035019683854
 20
6.2095872013397964
 11
7.5496035019683871
 21
4.6855872013397972
  0
LINE
  8
CUT
 62
     5
 10
5.7416195206726242
 20
2.7341213784476759
 11
6.2416195206726242
 21
2.7341213784476759
  0
ARC
  8
CUT
 62
     5
 10
6.2416195206726242
 20
2.8341213784476760
 40
0.1000000000000000
 50
270.0000000000000000
 51
0.0000000000000000
  0
LINE
  8
CUT
 62
     5
 10
6.3416195206726256
 20
2.8341213784476760
 11
6.3416195206726238
 21
3.3041213784476766
  0
ARC
  8
CUT
 62
     5
 10
6.3116195206726244
 20
3.3041213784476766
 40
0.0300000000000000
 50
0.0000000000000000
 51
90.0000000000000000
  0
LINE
  8
CUT
 62
     5
 10
6.3116195206726244
 20
3.3341213784476764
 11
5.6716195206726248
 21
3.3341213784476764
  0
ARC
  8
CUT
 62
     5
 10
5.6716195206726248
 20
3.3041213784476766
 40
0.0300000000000000
 50
90.0000000000000000
 51
180.0000000000000000
  0
LINE
  8
CUT
 62
     5
 10
5.6416195206726245
 20
3.3041213784476766
 11
5.6416195206726245
 21
2.8341213784476760
  0
ARC
  8
CUT
 62
     5
 10
5.7416195206726242
 20
2.8341213784476760
 40
0.1000000000000000
 50
180.0000000000000000
 51
270.0000000000000000
  0
CIRCLE
  8
CUT
 62
     5
 10
4.3209653540059580
 20
3.1629311006698981
 40
0.0787500000000000
  0
LINE
  8
CUT
 62
     5
 10
3.2287028540059577
 20
2.8754686006698980
 11
3.4487028540059574
 21
2.8754686006698980
  0
LINE
  8
CUT
 62
     5
 10
3.4487028540059574
 20
2.8754686006698980
 11
3.4487028540059574
 21
3.2254686006698985
  0
LINE
  8
CUT
 62
     5
 10
3.4487028540059574
 20
3.2254686006698985
 11
3.2287028540059577
 21
3.2254686006698985
  0
LINE
  8
CUT
 62
     5
 10
3.2287028540059577
 20
3.2254686006698985
 11
3.2287028540059577
 21
2.8754686006698980
  0
CIRCLE
  8
CUT
 62
     5
 10
2.5342181317837360
 20
2.8101172117810091
 40
0.4625000000000000
  0
LINE
  8
CUT
 62
     5
 10
1.2641888540059583
 20
2.8754686006698980
 11
1.4841888540059580
 21
2.8754686006698980
  0
LINE
  8
CUT
 62
     5
 10
1.4841888540059580
 20
2.8754686006698980
 11
1.4841888540059580
 21
3.2254686006698985
  0
LINE
  8
CUT
 62
     5
 10
1.4841888540059580
 20
3.2254686006698985
 11
1.2641888540059583
 21
3.2254686006698985
  0
LINE
  8
CUT
 62
     5
 10
1.2641888540059583
 20
3.2254686006698985
 11
1.2641888540059583
 21
2.8754686006698980
  0
CIRCLE
  8
CUT
 62
     5
 10
0.5697041317837366
 20
2.8101172117810091
 40
0.4625000000000000
  0
LINE
  8
CUT
 62
     5
 10
7.5496035019683871
 20
2.4427936006698987
 11
7.3496035019683861
 21
2.4427936006698987
  0
LINE
  8
CUT
 62
     5
 10
7.3496035019683861
 20
2.4427936006698987
 11
7.3496035019683861
 21
2.2427936006698994
  0
LINE
  8
CUT
 62
     5
 10
7.3496035019683861
 20
2.2427936006698994
 11
5.0904678875376455
 21
2.2427936006698985
  0
LINE
  8
CUT
 62
     5
 10
5.0904678875376455
 20
2.2427936006698985
 11
5.0904678875376463
 21
2.4655835817721057
  0
ARC
  8
CUT
 62
     5
 10
5.0604678875376461
 20
2.4655835817721057
 40
0.0300000000000000
 50
0.0000000000000000
 51
90.0000000000000000
  0
LINE
  8
CUT
 62
     5
 10
5.0604678875376461
 20
2.4955835817721055
 11
4.4204678875376455
 21
2.4955835817721055
  0
ARC
  8
CUT
 62
     5
 10
4.4204678875376455
 20
2.4655835817721057
 40
0.0300000000000000
 50
90.0000000000000000
 51
180.0000000000000000
  0
LINE
  8
CUT
 62
     5
 10
4.3904678875376453
 20
2.4655835817721057
 11
4.3904678875376453
 21
2.2427936006698985
  0
LINE
  8
CUT
 62
     5
 10
4.3904678875376453
 20
2.2427936006698985
 11
-0.4000724108364277
 21
2.2427936006698985
  0
LINE
  8
CUT
 62
     5
 10
-0.4000724108364277
 20
2.2427936006698985
 11
-0.5000000000000000
 21
2.3465984559833415
  0
LINE
  8
CUT
 62
     5
 10
-0.5000000000000000
 20
2.3465984559833415
 11
-0.4381151168066892
 21
3.9718921067899124
  0
ARC
  8
CUT
 62
     5
 10
-0.3042121473275018
 20
3.9667936006698983
 40
0.1340000000000000
 50
90.0000000000000000
 51
177.8194521457592145
  0
LINE
  8
CUT
 62
     5
 10
-0.3042121473275018
 20
4.1007936006698982
 11
7.4156035019683868
 21
4.1007936006698973
  0
ARC
  8
CUT
 62
     5
 10
7.4156035019683850
 20
3.9667936006698978
 40
0.1340000000000000
 50
0.0000000000000000
 51
89.9999999999992468
  0
LINE
  8
CUT
 62
     5
 10
7.5496035019683854
 20
3.9667936006698978
 11
7.5496035019683871
 21
2.4427936006698987
  0
ENDSEC
  0
EOF
